<?xml version="1.0" encoding="iso-8859-1"?>
<!-- Generator: Adobe Illustrator 21.0.0, SVG Export Plug-In . SVG Version: 6.00 Build 0)  -->
<svg xmlns="http://www.w3.org/2000/svg" xmlns:xlink="http://www.w3.org/1999/xlink" version="1.1" id="Capa_1" x="0px" y="0px" viewBox="0 0 511.982 511.982" style="enable-background:new 0 0 511.982 511.982;" xml:space="preserve" width="512" height="512">
<g>
	<path d="M62.526,108.488c6.268,5.417,15.741,4.727,21.157-1.541c7.155-8.28,14.982-16.106,23.262-23.262   c6.268-5.417,6.958-14.889,1.541-21.157c-5.417-6.268-14.889-6.958-21.157-1.541c-9.377,8.104-18.24,16.967-26.344,26.344   C55.568,93.599,56.258,103.071,62.526,108.488z"/>
	<path d="M181.988,38.24c10.335-3.598,21.034-6.458,31.798-8.5c8.139-1.544,13.486-9.394,11.942-17.533   c-1.544-8.139-9.395-13.484-17.533-11.942c-12.21,2.316-24.346,5.56-36.071,9.642c-7.824,2.724-11.958,11.274-9.234,19.098   C165.616,36.834,174.171,40.963,181.988,38.24z"/>
	<path d="M298.196,29.74c10.76,2.041,21.456,4.9,31.791,8.497c7.821,2.723,16.374-1.411,19.097-9.236   c2.724-7.824-1.411-16.374-9.235-19.097c-11.724-4.081-23.856-7.323-36.063-9.639c-8.131-1.542-15.988,3.803-17.532,11.942   C284.71,20.347,290.057,28.196,298.196,29.74z"/>
	<path d="M405.031,83.679c8.282,7.157,16.111,14.986,23.271,23.27c5.419,6.27,14.89,6.956,21.157,1.541   c6.268-5.417,6.957-14.889,1.54-21.157c-8.106-9.381-16.974-18.247-26.353-26.352c-6.27-5.417-15.739-4.726-21.157,1.542   C398.073,68.791,398.763,78.263,405.031,83.679z"/>
	<path d="M482.242,213.787c1.545,8.14,9.395,13.485,17.533,11.941c8.14-1.544,13.485-9.394,11.941-17.533   c-2.316-12.21-5.56-24.343-9.64-36.062c-2.725-7.825-11.28-11.957-19.098-9.235c-7.823,2.724-11.958,11.274-9.234,19.098   C477.341,192.326,480.2,203.022,482.242,213.787z"/>
	<path d="M499.775,286.254c-8.134-1.544-15.988,3.802-17.533,11.941c-2.042,10.762-4.9,21.458-8.496,31.79   c-2.724,7.824,1.411,16.374,9.235,19.097c7.821,2.723,16.374-1.411,19.097-9.236c4.08-11.72,7.322-23.852,9.639-36.059   C513.261,295.648,507.915,287.798,499.775,286.254z"/>
	<path d="M449.461,403.486c-6.268-5.416-15.74-4.725-21.156,1.543c-7.155,8.281-14.984,16.11-23.271,23.271   c-6.268,5.417-6.957,14.889-1.54,21.157c5.419,6.27,14.89,6.956,21.157,1.541c9.383-8.109,18.249-16.976,26.353-26.355   C456.421,418.374,455.729,408.902,449.461,403.486z"/>
	<path d="M329.992,473.743c-10.336,3.598-21.034,6.458-31.797,8.499c-8.139,1.544-13.485,9.394-11.941,17.533   c1.543,8.134,9.387,13.486,17.533,11.942c12.207-2.316,24.342-5.559,36.068-9.641c7.823-2.723,11.958-11.274,9.234-19.097   C346.366,475.154,337.815,471.02,329.992,473.743z"/>
	<path d="M213.787,482.242c-10.761-2.041-21.457-4.9-31.789-8.496c-7.823-2.723-16.374,1.412-19.098,9.235   c-2.723,7.824,1.412,16.374,9.235,19.097c11.722,4.08,23.854,7.323,36.061,9.638c8.14,1.544,15.989-3.805,17.533-11.942   C227.272,491.635,221.926,483.786,213.787,482.242z"/>
	<path d="M106.952,428.303c-8.284-7.158-16.113-14.988-23.271-23.271c-5.417-6.268-14.89-6.958-21.157-1.541   c-6.268,5.417-6.958,14.889-1.541,21.157c8.106,9.38,16.973,18.247,26.354,26.353c6.269,5.417,15.741,4.726,21.157-1.542   C113.91,443.192,113.22,433.72,106.952,428.303z"/>
	<path d="M29.74,298.196c-1.544-8.139-9.395-13.485-17.533-11.942c-8.139,1.544-13.486,9.394-11.942,17.533   c2.315,12.206,5.559,24.339,9.639,36.061c2.726,7.829,11.278,11.957,19.098,9.235c7.824-2.723,11.958-11.274,9.235-19.097   C34.64,319.652,31.781,308.957,29.74,298.196z"/>
	<path d="M29.004,162.893c-7.824-2.724-16.374,1.411-19.098,9.235c-4.082,11.723-7.325,23.858-9.641,36.067   c-1.544,8.139,3.803,15.989,11.942,17.533c8.132,1.545,15.988-3.799,17.533-11.941c2.042-10.764,4.901-21.462,8.499-31.796   C40.962,174.167,36.828,165.617,29.004,162.893z"/>
	<path d="M255.991,150.991c-57.897,0-105,47.103-105,105s47.103,105,105,105c57.897,0,105-47.103,105-105   S313.889,150.991,255.991,150.991z M255.991,330.991c-41.355,0-75-33.645-75-75s33.645-75,75-75c41.355,0,75,33.645,75,75   S297.347,330.991,255.991,330.991z"/>
</g>















</svg>
