<?xml version="1.0" encoding="iso-8859-1"?>
<!-- Generator: Adobe Illustrator 16.0.0, SVG Export Plug-In . SVG Version: 6.00 Build 0)  -->
<!DOCTYPE svg PUBLIC "-//W3C//DTD SVG 1.1//EN" "http://www.w3.org/Graphics/SVG/1.1/DTD/svg11.dtd">
<svg version="1.1" id="Capa_1" xmlns="http://www.w3.org/2000/svg" xmlns:xlink="http://www.w3.org/1999/xlink" x="0px" y="0px"
	 width="30.619px" height="30.619px" viewBox="0 0 30.619 30.619" style="enable-background:new 0 0 30.619 30.619;"
	 xml:space="preserve">
<g>
	<path d="M1.448,0.952l11.084,29.263c0.091,0.242,0.326,0.404,0.585,0.404l0.053-0.002c0.277-0.023,0.507-0.23,0.56-0.504
		l2.627-13.505l12.39-2.393c0.266-0.052,0.467-0.266,0.501-0.532c0.035-0.267-0.104-0.525-0.346-0.643L2.377,0.116L2.374,0.112
		L2.372,0.113L2.265,0.062C2.038-0.05,1.754-0.007,1.57,0.161c-0.188,0.17-0.254,0.443-0.163,0.682l0.038,0.101L1.442,0.946
		L1.448,0.952z M26.672,13.343l-10.619,2.051L4.583,2.583L26.672,13.343z M15.153,16.262l-2.229,11.456L3.765,3.541L15.153,16.262z"
		/>
</g>
<g>
</g>
<g>
</g>
<g>
</g>
<g>
</g>
<g>
</g>
<g>
</g>
<g>
</g>
<g>
</g>
<g>
</g>
<g>
</g>
<g>
</g>
<g>
</g>
<g>
</g>
<g>
</g>
<g>
</g>
</svg>
